<svg id="Layer_1" data-name="Layer 1" xmlns="http://www.w3.org/2000/svg" viewBox="0 0 482.58 99.11"><defs><style>.cls-6{fill:#001970}</style></defs><path d="M178.94 20.51a8.09 8.09 0 0 1 5.36 2 .7.7 0 0 0 1 0l3.1-3.22a.74.74 0 0 0 0-1.12 13.4 13.4 0 0 0-9.62-3.69 14.31 14.31 0 1 0 0 28.62 13.64 13.64 0 0 0 9.66-3.85.8.8 0 0 0 0-1.08l-3.1-3.3a.8.8 0 0 0-1 0 8.4 8.4 0 0 1-5.34 1.91 7.89 7.89 0 0 1-7.84-8.08 7.93 7.93 0 0 1 7.8-8.19M214.12 14.5a14.32 14.32 0 1 0 14.32 14.36 14.26 14.26 0 0 0-14.32-14.36m0 22.28a8 8 0 1 1 8-7.92 8 8 0 0 1-8 7.92M257.54 36.9H248V15.66a.78.78 0 0 0-.75-.75h-4.74a.74.74 0 0 0-.75.75V42a.75.75 0 0 0 .75.76h15.08a.76.76 0 0 0 .76-.76v-4.35a.75.75 0 0 0-.76-.75M283.51 14.5a14.32 14.32 0 1 0 14.32 14.36 14.26 14.26 0 0 0-14.32-14.36m0 22.28a8 8 0 1 1 8-7.92 8 8 0 0 1-8 7.92M327.34 31.49c3.46-1.4 5.89-4.34 5.89-8a8.65 8.65 0 0 0-8.66-8.58h-11.9a.74.74 0 0 0-.76.75V42a.75.75 0 0 0 .76.76h4.73a.79.79 0 0 0 .76-.76V31.85h2.74l5.68 10.53a.74.74 0 0 0 .64.36h5.28a.75.75 0 0 0 .68-1.15zm-3.3-4.7h-5.88v-6.2H324a3 3 0 0 1 3 3 3.18 3.18 0 0 1-3 3.18M397.39 14.91h-9.7a.74.74 0 0 0-.72.75V42a.74.74 0 0 0 .72.75h9.7a13.91 13.91 0 1 0 0-27.82M397 36.85h-3.82v-16.1H397a7.72 7.72 0 0 1 7.75 8 7.74 7.74 0 0 1-7.75 8.1M438.08 14.5a14.32 14.32 0 1 0 14.31 14.36 14.26 14.26 0 0 0-14.31-14.36m0 22.28a8 8 0 1 1 7.92-7.92 8 8 0 0 1-7.95 7.92M360.69 15a.79.79 0 0 0-.67-.45h-.4a.8.8 0 0 0-.68.45l-12.45 26.7a.7.7 0 0 0 .68 1h4.37a1.29 1.29 0 0 0 1.43-.95l1.43-3.18h10.84l1.42 3.14c.41.86.57 1 1.39 1h4.41a.7.7 0 0 0 .68-1zm-4.51 18.94l3.62-8.34 3.65 8.34zM174.11 65.42a9.68 9.68 0 0 1 9.89 9.77 9.93 9.93 0 1 1-19.86 0 9.68 9.68 0 0 1 9.97-9.77zm0 16.71c3.46 0 6.29-3 6.29-6.94a6.3 6.3 0 1 0-12.58 0c0 3.94 2.84 6.94 6.29 6.94zM186.16 82.34h2v-8.63H186v-2.57h2.13v-.62c0-4.45 3.57-5 5.4-5a8.66 8.66 0 0 1 1.41.11v2.75a5.43 5.43 0 0 0-1.06-.08 2 2 0 0 0-2.32 2.16v.7h6.26v-.62c0-4.45 3.54-5 5.38-5a8.77 8.77 0 0 1 1.43.11v2.75a5.43 5.43 0 0 0-1.06-.08 2 2 0 0 0-2.34 2.16v.7h9.69v11.2h2v2.57h-7.42v-2.61h2v-8.63h-6.26v8.63h2.34v2.57h-7.74v-2.57h2v-8.63h-6.26v8.63h2.32v2.57h-7.74zm21.32-16.6H211v3.05h-3.48zM221.77 70.82c2.29 0 5.64.86 5.64 3.29V76h-3v-.92c0-.91-1.4-1.35-2.57-1.35a3.89 3.89 0 0 0-4 4.24 4.11 4.11 0 0 0 4.31 4.37 7.27 7.27 0 0 0 4.3-1.67l1.21 2.43a8.74 8.74 0 0 1-5.66 2.13c-4 0-7.59-2.72-7.59-7.18a7.16 7.16 0 0 1 7.36-7.23zM229.49 82.34h2v-8.63h-2.13v-2.57h5.56v11.2h2v2.57h-7.4zm2-16.6h3.46v3.05h-3.46zM245.93 76.41h.87V76c0-1.76-1.11-2.38-2.54-2.38a7.62 7.62 0 0 0-3.89 1.32l-1.27-2.37a9.38 9.38 0 0 1 5.45-1.7c3.7 0 5.67 1.91 5.67 5.42v5.51a.53.53 0 0 0 .6.59h1.24v2.57h-3.24c-1.27 0-1.75-.68-1.75-1.46v-.16a2.7 2.7 0 0 1 .08-.7h-.06a4.79 4.79 0 0 1-4.34 2.64c-2.35 0-4.57-1.37-4.57-4.18 0-4.26 5.54-4.69 7.75-4.69zm-2.29 6.26c1.86 0 3.18-2 3.18-3.73v-.46h-.56c-1.35 0-4.62.22-4.62 2.3a1.86 1.86 0 0 0 2 1.89zM254.44 68.31h-2.13v-2.57h5.53v14.58c0 1.24.27 1.89 1.4 1.89h.65v2.76a10 10 0 0 1-1.24.08c-2.19 0-4.21-.73-4.21-4.48zM271.45 78.73v1.43c0 1.24 1.56 2 3.37 2s3.32-.84 3.32-2.38c0-1.94-2.18-2.56-4.4-3.43-2.56-1-5.07-2.13-5.07-5.56 0-3.86 3.13-5.34 6.42-5.34 3 0 6.07 1.16 6.07 3.37v2.48H278V70c0-1-1.43-1.49-2.86-1.49s-2.86.65-2.86 2.11c0 1.75 1.78 2.37 3.78 3.13 2.86 1 5.72 2.16 5.72 5.75 0 3.91-3.29 5.72-6.91 5.72-3.18 0-6.58-1.43-6.58-4.32v-2.17zM285.38 73.71h-2.11v-2.57h2.22v-3.75h3.32v3.75h3.13v2.57h-3.13v5.8a2.47 2.47 0 0 0 2.75 2.67h.62V85a6.34 6.34 0 0 1-1.05.08c-1.94 0-5.75-.56-5.75-5.18zM301.25 76.41h.87V76c0-1.76-1.11-2.38-2.54-2.38a7.62 7.62 0 0 0-3.89 1.32l-1.27-2.37a9.4 9.4 0 0 1 5.46-1.7c3.7 0 5.66 1.91 5.66 5.42v5.51a.53.53 0 0 0 .6.59h1.24v2.57h-3.24c-1.27 0-1.75-.68-1.75-1.46v-.16a2.7 2.7 0 0 1 .08-.7h-.06a4.79 4.79 0 0 1-4.34 2.64c-2.35 0-4.56-1.37-4.56-4.18 0-4.26 5.49-4.69 7.74-4.69zM299 82.67c1.86 0 3.18-2 3.18-3.73v-.46h-.56c-1.35 0-4.62.22-4.62 2.3a1.86 1.86 0 0 0 2 1.89zM310.38 73.71h-2.1v-2.57h2.21v-3.75h3.32v3.75h3.13v2.57h-3.13v5.8a2.47 2.47 0 0 0 2.75 2.67h.62V85a6.34 6.34 0 0 1-1.05.08c-1.94 0-5.75-.56-5.75-5.18zM325.69 70.82c4 0 6.13 2.89 6.13 6.53 0 .41-.08 1.16-.08 1.16h-9.53a4 4 0 0 0 4.13 3.83 7 7 0 0 0 4-1.45l1.32 2.43a8.76 8.76 0 0 1-5.56 1.91 7 7 0 0 1-7.4-7.23c0-4.21 2.86-7.18 6.99-7.18zm2.59 5.67c0-1.89-1.21-3-2.67-3a3.35 3.35 0 0 0-3.32 3zM339.41 65.74h7.47v2.68h-2.24l2.49 10.93a13.46 13.46 0 0 1 .21 1.67h.11a10.67 10.67 0 0 1 .3-1.67l3.59-13.61h2.83l3.59 13.61a10.67 10.67 0 0 1 .3 1.67h.11a13.46 13.46 0 0 1 .21-1.67l2.49-10.93h-2.25v-2.68h7.48v2.68h-1.75l-4.08 16.49h-4l-3.21-12.09a12.65 12.65 0 0 1-.3-1.76h-.08a11.91 11.91 0 0 1-.29 1.76l-3.21 12.09h-4l-4.08-16.49h-1.75zM374.15 70.82c4 0 6.13 2.89 6.13 6.53 0 .41-.08 1.16-.08 1.16h-9.53a4 4 0 0 0 4.13 3.83 7 7 0 0 0 4-1.45l1.32 2.43a8.79 8.79 0 0 1-5.56 1.91 7.06 7.06 0 0 1-7.4-7.2c0-4.24 2.84-7.21 6.99-7.21zm2.6 5.67c-.06-1.89-1.22-3-2.68-3a3.36 3.36 0 0 0-3.32 3zM383.15 68.31H381v-2.57h5.53v6c0 .67-.05 1.16-.05 1.16h.05a4.9 4.9 0 0 1 4.13-2.05c3.73 0 6.13 2.94 6.13 7.21s-2.7 7.2-6.34 7.2a4.57 4.57 0 0 1-4.11-2.18h-.05s.05.48.05 1v.84h-3.23zm6.74 14c1.89 0 3.49-1.53 3.49-4.26S392 73.76 390 73.76c-1.78 0-3.46 1.3-3.46 4.35-.05 2.13 1.06 4.23 3.35 4.23zM405.37 82.26h2.29V68.42h-2.29v-2.68h9.17a8.3 8.3 0 0 1 3.24.49 5.89 5.89 0 0 1 3.43 5.67 6 6 0 0 1-3.64 5.83 9.15 9.15 0 0 1-2.94.38h-3.43v4.15h2.32v2.65h-8.15zm8.8-7a4.14 4.14 0 0 0 1.94-.38 3.62 3.62 0 0 0 .16-5.85 3.89 3.89 0 0 0-2.08-.46h-3v6.69zM430.12 70.82c4.21 0 7.59 3 7.59 7.21a7.22 7.22 0 0 1-7.56 7.2c-4.21 0-7.58-3-7.58-7.2a7.23 7.23 0 0 1 7.55-7.21zm0 11.5a4.3 4.3 0 1 0-4.1-4.29 4.1 4.1 0 0 0 4.13 4.29zM439.6 82.34h2v-8a.54.54 0 0 0-.59-.59h-1.54v-2.61h3.59c1.21 0 1.83.51 1.83 1.68v.81a6.72 6.72 0 0 1-.05.86h.05a4.74 4.74 0 0 1 4.38-3.49 3.59 3.59 0 0 1 .62.06v3.37a6.57 6.57 0 0 0-.84 0c-2.78 0-4 2.43-4 5v3h2V85h-7.4zM452.75 73.71h-2.1v-2.57h2.21v-3.75h3.32v3.75h3.13v2.57h-3.13v5.8a2.47 2.47 0 0 0 2.75 2.67h.62V85a6.34 6.34 0 0 1-1.05.08c-1.94 0-5.75-.56-5.75-5.18zM468.63 76.41h.86V76c0-1.76-1.11-2.38-2.54-2.38a7.57 7.57 0 0 0-3.88 1.32l-1.27-2.37a9.35 9.35 0 0 1 5.45-1.7c3.7 0 5.67 1.91 5.67 5.42v5.51a.52.52 0 0 0 .59.59h1.24v2.57h-3.24c-1.26 0-1.75-.68-1.75-1.46v-.16a2.7 2.7 0 0 1 .08-.7 4.79 4.79 0 0 1-4.35 2.64c-2.35 0-4.56-1.37-4.56-4.18-.05-4.26 5.48-4.69 7.7-4.69zm-2.3 6.26c1.86 0 3.19-2 3.19-3.73v-.46H469c-1.35 0-4.62.22-4.62 2.3a1.86 1.86 0 0 0 1.95 1.89zM477.13 68.31H475v-2.57h5.53v14.58c0 1.24.27 1.89 1.41 1.89h.64v2.76a9.8 9.8 0 0 1-1.24.08c-2.18 0-4.21-.73-4.21-4.48zM147.08.11h1.3v99h-1.3z"/><path d="M43.48 80.63a52.32 52.32 0 0 1-4.14-6l-.22-.32c-.91-1.65-1.77-3.33-2.53-5.07-.21-.51-.43-1-.63-1.57a49.56 49.56 0 0 1-3.36-20.62A48.63 48.63 0 0 1 39 25.29a1.39 1.39 0 0 1 .12-.32c1.06-1.7 2.14-3.37 3.34-5-.55-1-1.14-2-1.78-3.19-3.92-7-5.9-10.34-9.84-16.81C26.89 6.59 24.92 10 21 17.09 17.07 24 15.12 27.5 11.27 34.86a64.48 64.48 0 0 1 8-1.64c-.82 2-1.23 3-2.05 5.06-4.66 9.25-9.1 18.66-13.28 28.13a63.11 63.11 0 0 1 8.31-2.54C8 74.07 4 84.28 0 94.59c21.66-7.48 39.36-7.59 61.07-.19A50.9 50.9 0 0 1 48.55 86a48.66 48.66 0 0 1-5.07-5.37z" fill="#245d38"/><path d="M82.23 25.67a24 24 0 0 0-18.53 8.69l-.12.14a24.11 24.11 0 0 0-5.48 15.3v.68l14.63-12.75 10 8.71 10-8.71 13.66 11.92a23.65 23.65 0 0 0-1.86-9.13 24 24 0 0 0-22.3-14.85z" fill="#ffd100"/><path d="M39 25.29a48.63 48.63 0 0 0-6.4 21.76A49.56 49.56 0 0 0 36 67.67c.2.53.42 1.06.63 1.57l18.88-16.49c0-.33-.08-.67-.11-1 0-.6-.07-1.23-.07-1.94a26.9 26.9 0 0 1 6.15-17.11l.12-.14a26.88 26.88 0 0 1 45.45 6.9q10-4.06 20-8.07c.44-.19.57-.32.34-.83-.81-1.89-1.76-3.76-2.75-5.6-.09-.15-.19-.31-.28-.44Q110.85 2.79 85.36.43a45.06 45.06 0 0 0-14.49 1.13 49 49 0 0 0-27.79 17.63c-.22.26-.41.54-.62.81-1.2 1.6-2.28 3.27-3.34 5a1.39 1.39 0 0 0-.12.29z" fill="#c3002f"/><path d="M72.73 37.73L58.12 50.48c0 .36 0 .71.05 1.05a24.09 24.09 0 0 0 3.4 10.74c.41.67.76 1.18 1.09 1.64l20-17.47z" fill="#7a853b"/><path d="M59.23 63.77a27.07 27.07 0 0 1-3.72-11L36.59 69.24c.76 1.74 1.62 3.42 2.53 5.07l.22.32a52.32 52.32 0 0 0 4.14 6l.73-.63 16.36-14.26-.08-.1c-.39-.53-.79-1.13-1.26-1.87z" fill="#6d3a5d"/><path class="cls-6" d="M126.8 67.8q-9.81-4-19.63-7.92a26.53 26.53 0 0 1-2.81 5.21 26.89 26.89 0 0 1-43.78.64L44.21 80l-.73.63A48.66 48.66 0 0 0 48.55 86a50.9 50.9 0 0 0 12.52 8.4A49.75 49.75 0 0 0 80.61 99a46.73 46.73 0 0 0 15-1.93 49.26 49.26 0 0 0 24.1-15.7c.43-.5.84-1 1.25-1.54a58.86 58.86 0 0 0 3.68-5.48 51.84 51.84 0 0 0 2.63-5.35c.06-.18.12-.31.16-.41l.06-.16-.06-.25c-.1-.18-.29-.18-.63-.38z"/><path d="M82.71 46.44l19.16 16.71.28.24a22.89 22.89 0 0 0 2.44-4.54 23.84 23.84 0 0 0 1.76-9.05v-.15L92.69 37.73z" fill="#35647e"/><path class="cls-6" d="M82.71 46.44l-20 17.47.07.09a24.11 24.11 0 0 0 39.34-.48l.08-.13-.28-.24z"/><path d="M111.4 93.93h-1.06a.13.13 0 0 1-.13-.13v-.57a.13.13 0 0 1 .13-.13h3a.13.13 0 0 1 .14.13v.57a.13.13 0 0 1-.14.13h-1.06v3.9a.13.13 0 0 1-.13.13h-.64a.14.14 0 0 1-.14-.13zM115.35 93.14a.11.11 0 0 1 .12-.11h.11a.13.13 0 0 1 .12.07l1.53 3.28 1.53-3.28a.12.12 0 0 1 .12-.07h.12a.11.11 0 0 1 .12.11l.88 4.66a.12.12 0 0 1-.13.16h-.63a.15.15 0 0 1-.13-.1l-.41-2.63-1.28 2.77a.13.13 0 0 1-.12.07h-.13a.13.13 0 0 1-.12-.07l-1.22-2.73-.4 2.63a.13.13 0 0 1-.12.1h-.63c-.09 0-.14-.06-.13-.16z"/></svg>